# xmcd CD database file
# Copyright (C) 1997 Ti Kan
#
# Track frame offsets:
#  182
#  20150
#  47385
#  72832
#  89012
#  108910
#  130922
#  149740
#  163212
#  183197
#  215697
#  238132
#  257312
#
# Disc length: 3632 seconds
#
# Revision: 1
# Processed by: cddbd v1.4b41PL1 Copyright (c) Steve Scherf et al.
# Submitted via: CDWizzard Release:4.30
#
DISCID=bf0e2e0d
DTITLE=Todd Mack - Looking for Leon
DYEAR=1900
DGENRE=
TTITLE0=One of a Kind
TTITLE1=Younger Days
TTITLE2=Jesus and the Old Man
TTITLE3=Buddy Song
TTITLE4=Goin Back
TTITLE5=Simple Song
TTITLE6=Empty Hand
TTITLE7=One More Day
TTITLE8=Lady Time
TTITLE9=Snakes in My Head
TTITLE10=Old Navajo
TTITLE11=Last Night I Dreamed
TTITLE12=Untitled
EXTD=
EXTT0=
EXTT1=
EXTT2=
EXTT3=
EXTT4=
EXTT5=
EXTT6=
EXTT7=
EXTT8=
EXTT9=
EXTT10=
EXTT11=
EXTT12=
PLAYORDER=
